<?xml version="1.0" encoding="utf-8"?>
<!-- Generator: Adobe Illustrator 19.0.1, SVG Export Plug-In . SVG Version: 6.00 Build 0)  -->
<svg version="1.1" id="Слой_1" xmlns="http://www.w3.org/2000/svg" xmlns:xlink="http://www.w3.org/1999/xlink" x="0px" y="0px"
	 viewBox="624 -150 297 303" width="16" height="21" style="enable-background:new 624 -150 297 303;" xml:space="preserve">
<style type="text/css">
	.st0{fill:#6d84b4;}
</style>
<title>search icon</title>
<g>
	<title>Layer 1</title>
	<path id="path12423" class="st0" d="M660.9-107.4C617.7-64.2,617.6,6.7,660.8,50c36.7,36.7,93.2,42.3,135.9,16.8l76.3,74.2
		c10.5,10.2,27.1,9.8,37.1-0.8c10-10.7,9.8-27.4-0.7-37.6l-75.2-72.9c26.4-42.8,21-100-16-137.1C775-150.7,704.2-150.7,660.9-107.4
		L660.9-107.4z M692.7-75.7c26.1-26.1,67.7-26.1,93.8,0c26.1,26.1,26.1,67.7,0,93.8c-26.1,26.1-67.7,26.1-93.8,0
		C666.6-7.9,666.6-49.6,692.7-75.7z"/>
</g>
</svg>
